<?xml version="1.0" standalone="no"?>
<!DOCTYPE svg PUBLIC "-//W3C//DTD SVG 20010904//EN"
 "http://www.w3.org/TR/2001/REC-SVG-20010904/DTD/svg10.dtd">
<svg version="1.0" xmlns="http://www.w3.org/2000/svg"
 width="808.000000pt" height="808.000000pt" viewBox="0 0 808.000000 808.000000"
 preserveAspectRatio="xMidYMid meet">
<metadata>
Created by potrace 1.11, written by Peter Selinger 2001-2013
</metadata>
<g transform="translate(0.000000,808.000000) scale(0.100000,-0.100000)"
fill="#000000" stroke="none">
<path d="M4825 7206 c-55 -6 -106 -15 -112 -19 -9 -5 -13 -34 -13 -81 0 -47
-5 -77 -12 -83 -7 -6 -40 -18 -73 -28 -97 -28 -177 -56 -215 -75 -19 -9 -41
-15 -48 -13 -6 3 -28 29 -47 58 -55 82 -46 84 -222 -29 -110 -69 -113 -72
-113 -107 0 -23 10 -51 30 -80 16 -24 30 -47 30 -51 0 -3 -23 -28 -50 -55 -28
-26 -73 -78 -101 -114 -60 -78 -89 -97 -121 -82 -83 38 -108 41 -130 16 -27
-30 -128 -237 -128 -260 0 -28 27 -56 81 -83 46 -24 45 -15 16 -140 -8 -36
-18 -92 -22 -125 -12 -116 -14 -118 -112 -136 -31 -6 -63 -18 -70 -27 -7 -10
-12 -42 -12 -72 -1 -84 24 -231 40 -241 8 -5 44 -9 80 -9 74 0 83 -6 98 -65
22 -88 30 -113 55 -179 14 -37 26 -77 26 -87 0 -10 -22 -37 -50 -60 -72 -61
-69 -78 46 -248 43 -66 55 -76 83 -79 23 -2 45 5 72 22 55 37 83 34 132 -17
23 -23 77 -70 119 -105 43 -34 80 -67 84 -73 6 -10 -1 -30 -27 -81 -5 -10 -9
-35 -9 -57 0 -36 4 -42 48 -68 99 -60 191 -103 221 -103 25 0 37 9 66 48 19
26 35 52 35 59 0 27 33 29 133 6 56 -12 115 -23 131 -23 16 0 46 -5 67 -12 38
-11 39 -12 39 -60 0 -27 7 -64 14 -83 l15 -35 78 0 c104 0 242 17 259 31 10 8
14 34 14 84 0 72 0 73 33 88 17 8 64 24 102 36 39 12 79 25 90 30 105 44 113
43 161 -21 23 -31 49 -54 62 -56 24 -4 266 148 276 173 7 20 -8 66 -39 119
l-27 45 70 71 c38 38 86 94 108 124 21 30 45 57 52 60 7 3 35 -5 62 -19 54
-27 105 -32 123 -12 16 17 32 45 84 146 61 118 58 143 -22 192 -69 42 -69 43
-42 169 8 41 19 103 22 138 8 73 23 92 73 93 48 1 79 7 103 19 16 9 19 21 18
78 -1 92 -14 241 -23 249 -3 4 -40 7 -82 7 -67 1 -78 4 -95 25 -10 13 -19 33
-19 44 0 25 -33 124 -66 195 -32 70 -31 86 11 112 19 11 45 34 59 50 35 43 32
51 -78 217 -71 108 -77 110 -165 58 -32 -19 -63 -35 -68 -35 -4 0 -37 29 -72
64 -35 35 -89 83 -121 107 -32 24 -61 52 -63 62 -3 9 6 40 19 67 44 90 39 97
-129 184 -134 69 -151 67 -206 -20 -35 -56 -45 -65 -64 -61 -12 3 -53 13 -92
22 -38 9 -97 19 -130 22 -87 8 -101 21 -110 98 -3 35 -12 68 -18 73 -20 17
-118 20 -222 8z m370 -481 c103 -18 186 -46 271 -91 280 -149 499 -405 565
-664 67 -262 64 -450 -12 -680 -56 -171 -135 -296 -271 -425 -168 -161 -327
-247 -563 -304 -151 -37 -418 -19 -585 38 -176 61 -300 139 -426 268 -62 64
-174 210 -174 227 0 4 -11 23 -24 44 -26 41 -75 182 -97 277 -18 78 -19 339
-1 420 45 204 66 259 147 380 104 158 197 253 332 342 62 40 114 73 117 73 3
0 35 13 71 30 78 36 197 69 285 80 82 10 260 3 365 -15z"/>
<path d="M2174 5629 c-17 -22 -33 -69 -44 -128 -6 -30 -15 -60 -20 -66 -6 -8
-64 -17 -143 -25 -72 -6 -154 -16 -180 -21 -87 -16 -86 -17 -123 98 -24 75
-42 88 -101 75 -76 -16 -304 -100 -325 -119 -23 -21 -21 -62 8 -150 21 -65 21
-66 -102 -139 -51 -31 -123 -78 -160 -105 -37 -27 -76 -49 -86 -49 -11 0 -45
23 -75 50 -60 55 -97 64 -137 33 -12 -10 -70 -69 -129 -132 -133 -142 -134
-148 -46 -237 l61 -62 -59 -104 c-32 -56 -76 -141 -97 -188 -55 -123 -59 -126
-143 -111 -78 15 -113 12 -123 -9 -18 -37 -29 -69 -40 -125 -7 -33 -18 -85
-25 -115 -26 -113 -27 -128 -7 -148 11 -11 52 -27 93 -37 41 -10 80 -22 87
-28 8 -6 12 -43 12 -116 0 -59 7 -154 15 -210 16 -107 14 -141 -11 -141 -8 0
-22 -4 -32 -8 -123 -60 -117 -55 -120 -94 -3 -35 16 -98 89 -295 l23 -63 45 0
c24 0 71 9 103 21 68 24 78 22 98 -17 34 -68 122 -197 198 -288 17 -22 32 -45
32 -51 0 -6 -25 -41 -55 -78 -75 -91 -74 -107 12 -183 197 -174 210 -184 236
-184 13 0 47 27 89 70 37 39 72 70 76 70 4 0 28 -13 53 -28 62 -39 251 -129
299 -142 38 -10 47 -48 29 -133 -8 -40 -13 -80 -11 -89 4 -19 34 -31 117 -48
33 -7 85 -18 115 -25 81 -19 156 -28 178 -21 19 6 31 35 52 126 6 25 13 53 16
62 4 14 24 17 132 21 70 2 169 9 220 16 105 14 116 10 128 -42 9 -44 43 -120
57 -129 7 -4 24 -8 40 -8 36 0 327 98 350 118 23 21 22 78 -4 153 l-21 61 23
24 c12 13 26 24 30 24 13 0 200 123 247 163 24 21 54 37 66 37 11 0 46 -21 76
-46 30 -25 64 -49 75 -53 28 -12 68 5 102 42 15 18 68 76 116 129 54 61 87
106 87 120 0 14 -24 46 -70 89 -39 37 -70 71 -70 76 0 4 14 33 32 63 40 71
111 215 127 260 29 80 32 82 76 76 108 -16 171 -18 181 -5 27 36 91 338 81
380 -7 28 -43 49 -85 49 -40 0 -112 24 -123 41 -5 8 -9 79 -9 158 0 79 -5 172
-12 207 -14 78 -11 82 84 119 96 37 101 41 95 84 -8 52 -17 93 -27 116 -5 11
-24 64 -41 118 -18 54 -38 105 -46 113 -20 20 -69 18 -136 -6 -31 -11 -65 -20
-74 -20 -13 0 -38 33 -78 101 -90 151 -97 162 -132 206 -45 56 -43 83 12 147
66 77 63 99 -22 173 -37 32 -93 82 -125 111 -77 69 -101 78 -142 53 -17 -11
-48 -40 -69 -65 -42 -51 -58 -55 -102 -26 -31 21 -171 91 -259 129 l-48 21 6
62 c15 130 13 149 -14 169 -14 11 -51 24 -83 29 -31 6 -83 15 -114 21 -197 38
-266 44 -279 28z m91 -578 c60 -10 106 -20 180 -41 22 -6 50 -14 63 -17 12 -3
25 -9 28 -14 3 -5 12 -9 19 -9 25 0 177 -76 257 -129 138 -90 239 -188 351
-341 26 -36 50 -70 55 -75 16 -22 96 -179 115 -225 22 -56 26 -66 32 -90 3
-14 12 -48 20 -76 30 -109 48 -276 42 -399 -5 -117 -41 -331 -58 -349 -5 -6
-9 -18 -9 -28 0 -10 -4 -26 -9 -36 -5 -9 -19 -42 -31 -73 -84 -222 -322 -491
-575 -650 -58 -36 -190 -99 -208 -99 -9 0 -19 -5 -22 -10 -3 -5 -15 -10 -26
-10 -10 0 -27 -4 -37 -9 -108 -57 -510 -85 -682 -47 -322 69 -640 254 -825
481 -125 153 -196 288 -265 510 -28 90 -60 291 -60 374 0 75 26 263 46 331 8
30 18 64 21 75 2 11 8 29 13 40 4 11 18 47 31 80 48 126 125 247 252 395 121
142 365 307 547 370 19 7 44 16 55 20 43 17 137 39 255 59 66 11 340 6 425 -8z"/>
<path d="M1890 4985 c-130 -19 -174 -29 -276 -61 -58 -18 -184 -74 -216 -96
-14 -10 -29 -18 -32 -18 -19 0 -285 -212 -286 -229 -1 -3 -23 -31 -51 -61 -81
-88 -147 -197 -196 -323 -9 -23 -19 -46 -23 -52 -6 -10 -19 -54 -38 -130 -33
-130 -44 -461 -21 -589 42 -235 170 -477 344 -651 96 -96 96 -96 197 -168 68
-49 256 -143 318 -159 138 -37 266 -57 370 -59 142 -3 384 26 432 52 10 5 24
9 32 9 35 0 200 80 287 139 252 172 429 393 521 651 11 30 23 64 28 75 5 11
11 31 13 45 3 14 12 54 20 90 31 137 30 386 -3 518 -5 23 -14 59 -18 80 -11
47 -68 183 -102 242 -14 25 -34 62 -45 83 -40 77 -182 243 -261 305 -44 34
-90 71 -104 82 -38 30 -280 148 -351 170 -171 55 -385 77 -539 55z"/>
<path d="M7033 4909 l-20 -54 -97 -8 c-106 -10 -127 -2 -140 47 -12 49 -77 47
-192 -3 l-47 -21 6 -52 c6 -45 3 -55 -15 -75 -12 -13 -25 -23 -30 -23 -5 0
-36 -18 -68 -40 -66 -45 -84 -48 -120 -20 -41 32 -62 25 -123 -39 -63 -66 -72
-99 -37 -144 26 -33 26 -38 -13 -116 -19 -36 -41 -83 -50 -103 -17 -38 -17
-38 -74 -38 l-58 0 -18 -62 c-10 -35 -19 -81 -20 -103 -2 -38 0 -41 42 -62 25
-13 48 -28 52 -34 10 -16 22 -194 15 -216 -3 -10 -22 -27 -41 -37 -19 -10 -37
-26 -40 -35 -7 -23 31 -150 51 -172 13 -14 31 -19 70 -19 l54 0 65 -101 66
-102 -20 -21 c-13 -14 -21 -36 -21 -58 0 -32 8 -43 57 -87 66 -59 87 -62 144
-24 l40 27 68 -37 c38 -20 75 -37 83 -37 29 0 48 -35 48 -87 0 -39 4 -53 18
-58 30 -13 95 -27 147 -32 48 -4 51 -3 64 24 39 85 26 77 146 85 93 6 113 4
127 -9 10 -9 18 -22 18 -29 0 -8 11 -21 24 -29 25 -16 72 -11 156 18 54 19 63
32 56 80 -8 53 -2 61 102 131 l84 57 43 -26 c24 -14 50 -25 58 -25 8 0 42 28
75 62 68 69 76 97 43 139 -34 45 -33 60 17 159 l47 95 50 5 50 5 27 65 c33 81
37 155 9 170 -11 5 -30 10 -43 10 -42 0 -48 17 -48 137 l0 112 36 17 c56 27
60 47 27 145 l-29 84 -50 1 c-27 1 -56 2 -65 3 -8 0 -44 44 -78 97 l-64 95 27
28 c14 15 26 36 26 48 0 22 -131 153 -154 153 -7 0 -21 -10 -32 -21 -37 -41
-60 -42 -142 -5 -103 47 -114 57 -101 96 16 44 5 77 -28 83 -16 3 -48 11 -73
17 -25 6 -72 14 -106 17 l-61 5 -20 -53z m97 -265 c160 -33 338 -148 445 -287
40 -52 98 -162 114 -217 7 -25 17 -58 22 -74 12 -38 12 -278 0 -308 -5 -13
-15 -43 -22 -68 -7 -25 -23 -63 -35 -85 -11 -22 -32 -60 -45 -85 -35 -64 -162
-191 -246 -244 -39 -25 -76 -46 -81 -46 -5 0 -24 -7 -42 -16 -139 -70 -383
-66 -560 8 -141 60 -239 139 -322 261 -100 148 -166 365 -140 463 7 24 12 57
12 72 0 34 51 177 87 246 60 113 187 240 295 294 180 91 356 120 518 86z"/>
<path d="M6870 4578 c-126 -26 -247 -80 -329 -147 -68 -55 -147 -157 -188
-241 -54 -110 -56 -118 -70 -239 -16 -148 70 -388 184 -506 75 -78 98 -95 196
-143 122 -60 155 -67 302 -66 106 0 143 4 197 22 139 45 249 124 335 239 15
21 31 40 34 43 11 9 69 129 83 172 7 24 19 81 26 128 20 136 3 240 -59 366
-101 202 -312 351 -526 369 -38 3 -86 7 -105 9 -19 2 -55 -1 -80 -6z"/>
</g>
</svg>
